<svg width="36" height="45" viewBox="0 0 36 45" fill="none" xmlns="http://www.w3.org/2000/svg">
<circle cx="18" cy="18" r="16" stroke="black" strokeWidth="4"/>
<rect x="21.1616" y="10.5" width="3.5508" height="34.4014" fill="black"/>
<path d="M26.4533 39.064H28.3971V37.8513C28.3971 37.5241 28.4536 37.3861 28.8955 37.3861H29.776V36.3057C29.4714 36.2946 28.5701 36.3057 27.4001 36.3057C26.3025 36.3057 26.4533 37.3861 26.4533 39.064Z" fill="black"/>
<path d="M29.5601 41.4409V40.4937H30.3241V36.3732C30.5117 36.3728 30.9961 36.3732 31.4872 36.3732C32.1133 36.3733 32.1663 36.926 32.1684 37.237C32.1739 38.0567 32.1684 39.8753 32.1684 40.5932C32.1684 41.332 31.7461 41.4409 31.3376 41.4409H29.5601Z" fill="black"/>
<rect x="11.6992" y="10.5" width="3.5508" height="15" fill="black"/>
<rect x="15.25" y="17.2109" width="5.91155" height="1.65662" fill="black"/>
<rect x="28.9438" y="43.5449" width="3.15326" height="1.35645" fill="black"/>
<path d="M29.1101 40.4883V41.4414H28.3964V44.9016H26.6113V40.4883H29.1101Z" fill="black"/>
</svg>
