<?xml version="1.0" encoding="UTF-8"?><svg id="a" xmlns="http://www.w3.org/2000/svg" viewBox="0 0 1000 1000"><defs><style>.b{fill:none;stroke:#1d1d1b;stroke-miterlimit:10;}.c{fill:#3699d5;}.d{fill:#263473;}.e{fill:#20539f;}</style></defs><path class="e" d="M984.6,499.99c0,257.63-216.96,466.47-484.6,466.47-95.59,0-184.7-26.64-259.78-72.63,174.25-.63,335.1-106.22,335.1-106.22V444.46s228.8-132.24,380.82-102.31c18.43,49.29,28.46,102.44,28.46,157.84Z"/><path class="c" d="M575.32,787.61s-160.85,105.59-335.1,106.22c-90.42-55.37-160.47-138.8-196.94-237.56,158.26,39.03,378.08-102.93,378.08-102.93l153.96,234.27Z"/><path class="c" d="M956.13,342.15c-152.02-29.93-380.82,102.31-380.82,102.31l-153.96-232.47s124.77-91.21,336.08-107.26h.01c91.07,55.08,161.76,138.5,198.69,237.42Z"/><path class="e" d="M757.43,104.73c-211.31,16.05-336.08,107.26-336.08,107.26v341.35s-219.82,141.96-378.08,102.93c-18.05-48.86-27.87-101.47-27.87-156.28C15.4,242.37,232.36,33.54,500,33.54c94.59,0,182.85,26.09,257.44,71.2Z"/><line class="b" x1="956.15" y1="342.15" x2="956.14" y2="342.15"/><polygon class="d" points="575.32 444.46 575.32 787.61 421.36 553.35 421.36 211.99 575.32 444.46"/><line class="b" x1="43.28" y1="656.27" x2="43.27" y2="656.27"/></svg>